# Blender 3.6.4
# www.blender.org
mtllib Scene_Terrain_Stands_Base_M.mtl
o Scene_Terrain_Stands_Base_M
v -12.800000 0.400000 1.100000
v -12.800000 4.300000 1.100000
v -12.800000 4.500000 1.100000
v -12.800000 4.500000 -1.500000
v 12.800000 0.400000 1.000000
v 12.800000 4.300000 1.100000
v -12.800000 0.000000 1.100000
v -12.800000 0.400000 1.000000
v -12.800000 4.300000 1.000000
v 12.800000 4.300000 1.000000
v 12.800000 4.500000 -1.500000
v 12.800000 0.000000 1.100000
v -12.800000 -0.000000 -1.500000
v 12.800000 -0.000000 -1.500000
v 12.800000 0.400000 1.100000
v 12.800000 4.500000 1.100000
vn 1.0000 -0.0000 -0.0000
vn -0.0000 1.0000 -0.0000
vn -0.0000 -0.0000 -1.0000
vn -1.0000 -0.0000 -0.0000
vn -0.0000 -0.0000 1.0000
vn -0.0000 -1.0000 -0.0000
vn 1.0000 0.0002 -0.0000
vn -1.0000 -0.0001 -0.0000
vt 0.190661 0.626459
vt 0.175097 0.630350
vt 0.350195 0.529183
vt 0.996109 0.428016
vt 0.000000 0.529183
vt 0.996109 0.529183
vt 0.996109 0.175097
vt 0.000000 0.000000
vt 0.000000 0.175097
vt 0.000000 0.661479
vt 0.996109 0.657587
vt 0.000000 0.657587
vt 0.167315 0.626459
vt 0.000000 0.653697
vt 0.996109 0.645914
vt 0.996109 0.653697
vt 0.000000 0.326848
vt 0.996109 0.326848
vt 0.000000 0.428016
vt 0.000000 0.645914
vt 0.996109 0.630350
vt 0.996109 0.645914
vt 0.996109 0.657587
vt 0.000000 0.653696
vt 0.996109 0.653696
vt 0.350195 0.630350
vt 0.342412 0.630350
vt 0.342412 0.626459
vt 0.175097 0.529183
vt 0.190661 0.630350
vt 0.996109 0.000000
vt 0.996109 0.661479
vt 0.000000 0.630350
vt 0.015564 0.630350
vt 0.015564 0.626459
vt 0.167315 0.630350
vt 0.000000 0.645914
vt 0.000000 0.657587
s 0
usemtl Untitled_Material.002
f 5/1/1 12/2/1 11/3/1
f 11/4/2 3/5/2 16/6/2
f 11/7/3 13/8/3 4/9/3
f 1/10/2 5/11/2 8/12/2
f 9/13/4 3/2/4 13/5/4
f 3/14/5 6/15/5 16/16/5
f 9/17/5 5/7/5 10/18/5
f 7/19/6 14/18/6 12/4/6
f 1/20/5 12/21/5 15/22/5
f 6/23/6 9/24/6 10/25/6
f 11/3/1 16/26/1 6/27/1
f 11/3/7 6/27/7 10/28/7
f 12/2/1 14/29/1 11/3/1
f 5/1/1 15/30/1 12/2/1
f 11/3/1 10/28/1 5/1/1
f 11/4/2 4/19/2 3/5/2
f 11/7/3 14/31/3 13/8/3
f 1/10/2 15/32/2 5/11/2
f 13/5/4 7/33/4 1/34/4
f 13/5/8 1/34/8 8/35/8
f 3/2/4 4/29/4 13/5/4
f 9/13/4 2/36/4 3/2/4
f 13/5/4 8/35/4 9/13/4
f 3/14/5 2/37/5 6/15/5
f 9/17/5 8/9/5 5/7/5
f 7/19/6 13/17/6 14/18/6
f 1/20/5 7/33/5 12/21/5
f 6/23/6 2/38/6 9/24/6
